<?xml version="1.0" encoding="UTF-8"?>
<svg version="1.1" xmlns="http://www.w3.org/2000/svg" width="200" height="50">
<path d="M0 0 C0.66 1.32 1.32 2.64 2 4 C1.505 4.45375 1.01 4.9075 0.5 5.375 C-1.22609337 6.87635519 -1.22609337 6.87635519 -1 9 C-0.34 9.66 0.32 10.32 1 11 C0.75 13.0625 0.75 13.0625 0 15 C-0.99 15.495 -0.99 15.495 -2 16 C-2.23558744 18.41849887 -2.37546186 20.76341711 -2.4375 23.1875 C-2.62799454 29.44923989 -3.32888478 34.23677736 -7.8125 38.875 C-10.77615556 40.39916572 -12.71539828 40.489196 -16 40 C-17.9375 38.3125 -17.9375 38.3125 -19 36 C-18.7434556 32.49389321 -17.9814066 30.9721099 -16 28 C-14.35 27.34 -12.7 26.68 -11 26 C-10.67 22.37 -10.34 18.74 -10 15 C-11.32 14.67 -12.64 14.34 -14 14 C-13.67 12.68 -13.34 11.36 -13 10 C-12.01 10 -11.02 10 -10 10 C-9.896875 8.72125 -9.79375 7.4425 -9.6875 6.125 C-9.51171875 3.9453125 -9.51171875 3.9453125 -9 2 C-5.5647952 -0.29013653 -4.014669 -0.17842973 0 0 Z " fill="#1E6A4A" transform="translate(92,9)"/>
<path d="M0 0 C2.6153265 2.36223039 2.95319749 3.6099791 3.375 7.125 C3.25125 8.07375 3.1275 9.0225 3 10 C-1.05358424 12.70238949 -3.18310104 12.22937614 -8 12 C-8.66 11.67 -9.32 11.34 -10 11 C-9.67 11.66 -9.34 12.32 -9 13 C-5.37 13 -1.74 13 2 13 C2.33 13.99 2.66 14.98 3 16 C0.98841318 18.89165605 -0.32771852 19.06871517 -3.875 19.8125 C-8.29125423 20.20955772 -11.13130894 19.33477933 -14.75 16.75 C-16.5999854 14.16002043 -16.81720107 12.1685148 -17 9 C-16.30457031 5.26996803 -15.83461087 2.83461087 -13.125 0.125 C-8.18965611 -2.48782912 -5.30694593 -2.02628845 0 0 Z M-9 4 C-9.33 4.66 -9.66 5.32 -10 6 C-7.69 6 -5.38 6 -3 6 C-3.33 5.34 -3.66 4.68 -4 4 C-5.65 4 -7.3 4 -9 4 Z " fill="#1C5F41" transform="translate(47,19)"/>
<path d="M0 0 C3.6054237 3.88276398 5.27259256 8.48125288 6.4375 13.625 C6.0390625 15.96875 6.0390625 15.96875 5.4375 17.625 C3.10416667 17.625 0.77083333 17.625 -1.5625 17.625 C-2.84125 17.851875 -4.12 18.07875 -5.4375 18.3125 C-8.51861099 18.71463029 -9.47138824 18.66461381 -12.4375 17.375 C-15.70818518 14.68149456 -16.5141587 13.04625991 -17 8.8125 C-16.92224718 5.57080554 -16.31686944 3.74075831 -14.3125 1.1875 C-9.50182344 -3.29517588 -5.73557263 -3.07762434 0 0 Z M-8.5625 3.625 C-10.8116908 5.45203227 -10.8116908 5.45203227 -10.8125 8.125 C-10.8116908 10.79796773 -10.8116908 10.79796773 -8.5625 12.625 C-6.49650917 12.69254834 -6.49650917 12.69254834 -4.5625 11.625 C-3.26589566 9.13465614 -3.26589566 9.13465614 -2.5625 6.625 C-3.87451173 5.06250191 -3.87451173 5.06250191 -5.5625 3.625 C-6.5525 3.625 -7.5425 3.625 -8.5625 3.625 Z " fill="#1E6B48" transform="translate(69.5625,20.375)"/>
<path d="M0 0 C1.65 0.33 3.3 0.66 5 1 C5 9.25 5 17.5 5 26 C8.155625 25.938125 8.155625 25.938125 11.375 25.875 C14.9609375 25.8046875 14.9609375 25.8046875 18 26 C18.66 26.66 19.32 27.32 20 28 C19.625 30.125 19.625 30.125 19 32 C12.6574121 33.29734753 6.38033566 33.11341214 0 32 C-2.5394613 29.4605387 -2.25689134 28.53701477 -2.265625 25.01953125 C-2.26820313 24.01986328 -2.27078125 23.02019531 -2.2734375 21.99023438 C-2.26570312 20.94158203 -2.25796875 19.89292969 -2.25 18.8125 C-2.25773438 17.78318359 -2.26546875 16.75386719 -2.2734375 15.69335938 C-2.25903004 10.07084635 -1.89135388 5.30629839 0 0 Z " fill="#1E684B" transform="translate(8,7)"/>
<path d="M0 0 C1.91924787 0.22934409 3.8354406 0.48434343 5.75 0.75 C7.35101563 0.95882813 7.35101563 0.95882813 8.984375 1.171875 C12.45268859 2.12431345 13.78646498 3.20722217 16 6 C17.07957377 9.23872132 17.13326784 11.66028205 17.125 15.0625 C17.12886719 16.65771484 17.12886719 16.65771484 17.1328125 18.28515625 C17 21 17 21 16 23 C14.35 22.67 12.7 22.34 11 22 C10.93941406 21.22914062 10.87882812 20.45828125 10.81640625 19.6640625 C10.73261719 18.66117188 10.64882812 17.65828125 10.5625 16.625 C10.48128906 15.62726562 10.40007812 14.62953125 10.31640625 13.6015625 C10.15034374 11.02072387 10.15034374 11.02072387 9 9 C7.68 9.33 6.36 9.66 5 10 C5.02320312 10.60328125 5.04640625 11.2065625 5.0703125 11.828125 C5.09738281 13.02695312 5.09738281 13.02695312 5.125 14.25 C5.14820312 15.03890625 5.17140625 15.8278125 5.1953125 16.640625 C4.9828378 19.20731941 4.28654105 20.7916067 3 23 C1.68 23 0.36 23 -1 23 C-2.62236162 19.75527677 -2.50691846 16.1941485 -2.75 12.625 C-2.81832031 11.85671875 -2.88664062 11.0884375 -2.95703125 10.296875 C-3.34238961 4.58566644 -3.34238961 4.58566644 -1.515625 1.4609375 C-1.01546875 0.97882812 -0.5153125 0.49671875 0 0 Z " fill="#226A4C" transform="translate(108,16)"/>
<path d="M0 0 C2.625 0.375 2.625 0.375 5 1 C5.05790353 4.29159316 5.09356261 7.58305603 5.125 10.875 C5.14175781 11.81214844 5.15851563 12.74929687 5.17578125 13.71484375 C5.18222656 14.61074219 5.18867187 15.50664062 5.1953125 16.4296875 C5.20578613 17.25710449 5.21625977 18.08452148 5.22705078 18.93701172 C5 21 5 21 3 23 C0.9375 22.75 0.9375 22.75 -1 22 C-2.70913373 18.58173253 -2.18458479 14.76645237 -2.1875 11 C-2.19974609 10.16726562 -2.21199219 9.33453125 -2.22460938 8.4765625 C-2.22654297 7.67992187 -2.22847656 6.88328125 -2.23046875 6.0625 C-2.23457764 5.33160156 -2.23868652 4.60070312 -2.24291992 3.84765625 C-2 2 -2 2 0 0 Z " fill="#1A6C4B" transform="translate(98,16)"/>
<path d="M0 0 C2 1 4 2 6 3 C4.375 9.75 4.375 9.75 1 12 C-2.125 12.1875 -2.125 12.1875 -5 12 C-6 11 -6 11 -6.25 8.625 C-6 6 -6 6 -4.625 4.1875 C-3 3 -3 3 -1 3 C-0.67 2.01 -0.34 1.02 0 0 Z " fill="#B99F8B" transform="translate(81,35)"/>
<path d="M0 0 C0 0.33 0 0.66 0 1 C-1.32 1.33 -2.64 1.66 -4 2 C-4 2.66 -4 3.32 -4 4 C-5.65 4.33 -7.3 4.66 -9 5 C-6.69 5 -4.38 5 -2 5 C-2 5.66 -2 6.32 -2 7 C-2.95712891 7.07347656 -2.95712891 7.07347656 -3.93359375 7.1484375 C-4.75988281 7.22320312 -5.58617187 7.29796875 -6.4375 7.375 C-7.26121094 7.44460937 -8.08492187 7.51421875 -8.93359375 7.5859375 C-9.61550781 7.72257812 -10.29742187 7.85921875 -11 8 C-11.33 8.66 -11.66 9.32 -12 10 C-12.99 9.34 -13.98 8.68 -15 8 C-15 8.99 -15 9.98 -15 11 C-15.66 11 -16.32 11 -17 11 C-15.68193299 2.72739518 -15.68193299 2.72739518 -13.125 0 C-8.047489 -2.38941694 -5.43012074 -1.77523178 0 0 Z " fill="#175A3D" transform="translate(47,19)"/>
<path d="M0 0 C2.97 0 5.94 0 9 0 C8 4 8 4 7 5 C6.63239269 7.32817964 6.29758419 9.6618385 6 12 C4.02 12 2.04 12 0 12 C-0.66 10.68 -1.32 9.36 -2 8 C-1.2265625 7.13375 -1.2265625 7.13375 -0.4375 6.25 C0.2740625 5.13625 0.2740625 5.13625 1 4 C0.67 2.68 0.34 1.36 0 0 Z " fill="#216050" transform="translate(98,2)"/>
<path d="M0 0 C1.65 0.33 3.3 0.66 5 1 C4.67 9.58 4.34 18.16 4 27 C3.67 27 3.34 27 3 27 C2.67 24.36 2.34 21.72 2 19 C1.67 19 1.34 19 1 19 C0.66191314 16.93827387 0.32972639 14.8755797 0 12.8125 C-0.185625 11.66394531 -0.37125 10.51539063 -0.5625 9.33203125 C-0.93608948 6.48674706 -1.1673778 3.86111427 -1 1 C-0.67 0.67 -0.34 0.34 0 0 Z " fill="#186741" transform="translate(8,7)"/>
<path d="M0 0 C0.99 0 1.98 0 3 0 C2.67 0.66 2.34 1.32 2 2 C1.75887453 5.73297945 1.61692392 9.46507869 1.4765625 13.203125 C0.88023715 17.95417614 -0.46861836 21.41581209 -3.8125 24.875 C-6.77615556 26.39916572 -8.71539828 26.489196 -12 26 C-13.9375 24.3125 -13.9375 24.3125 -15 22 C-14.7434556 18.49389321 -13.9814066 16.9721099 -12 14 C-9.875 13.3125 -9.875 13.3125 -8 13 C-8 13.66 -8 14.32 -8 15 C-8.66 15.433125 -9.32 15.86625 -10 16.3125 C-12.30342071 17.85583656 -12.30342071 17.85583656 -12.25 20.6875 C-12.1675 21.450625 -12.085 22.21375 -12 23 C-7.85513216 23.37388882 -7.85513216 23.37388882 -4.1875 21.75 C-2.88741278 19.83408198 -2.39143023 18.27029534 -2 16 C-3.32 15.34 -4.64 14.68 -6 14 C-2.25 12.875 -2.25 12.875 0 14 C0 9.38 0 4.76 0 0 Z " fill="#566B61" transform="translate(88,23)"/>
<path d="M0 0 C1.32 0 2.64 0 4 0 C4 2.97 4 5.94 4 9 C4.66 9.33 5.32 9.66 6 10 C5.67 11.32 5.34 12.64 5 14 C3.68 14 2.36 14 1 14 C-0.38226016 11.23547967 -0.09525387 8.9538637 -0.0625 5.875 C-0.05347656 4.77929688 -0.04445313 3.68359375 -0.03515625 2.5546875 C-0.02355469 1.71164063 -0.01195313 0.86859375 0 0 Z " fill="#317654" transform="translate(106,25)"/>
<path d="M0 0 C1.32 0 2.64 0 4 0 C4 0.66 4 1.32 4 2 C4.66 2.33 5.32 2.66 6 3 C5.98839844 3.77085938 5.97679688 4.54171875 5.96484375 5.3359375 C5.95582031 6.33882812 5.94679688 7.34171875 5.9375 8.375 C5.92589844 9.37273438 5.91429688 10.37046875 5.90234375 11.3984375 C5.81993398 13.98432453 5.81993398 13.98432453 7 16 C6.01 16.33 5.02 16.66 4 17 C2.64984141 12.94952424 3.37915002 10.2079832 4 6 C3.34 6 2.68 6 2 6 C1.67 7.32 1.34 8.64 1 10 C-1.29404844 6.55892734 -1.26293056 5.03160191 -1 1 C-0.67 0.67 -0.34 0.34 0 0 Z " fill="#1A6644" transform="translate(106,19)"/>
<path d="M0 0 C1.99954746 -0.04254356 4.00041636 -0.04080783 6 0 C7 1 7 1 7.1875 4.75 C7.15615249 8.23584286 6.57760458 10.84479083 5 14 C4.34 14 3.68 14 3 14 C3 13.34 3 12.68 3 12 C3.66 12 4.32 12 5 12 C5 11.34 5 10.68 5 10 C4.34 9.67 3.68 9.34 3 9 C2.375 6.4375 2.375 6.4375 2 4 C1.01 3.67 0.02 3.34 -1 3 C-0.67 2.01 -0.34 1.02 0 0 Z " fill="#197245" transform="translate(81,20)"/>
<path d="M0 0 C1.32 0 2.64 0 4 0 C4 4.62 4 9.24 4 14 C3.01 14 2.02 14 1 14 C-1.18841354 10.71737969 -1.24854665 9.68209102 -1.1875 5.875 C-1.18105469 4.98554688 -1.17460938 4.09609375 -1.16796875 3.1796875 C-1 1 -1 1 0 0 Z " fill="#287A56" transform="translate(99,23)"/>
<path d="M0 0 C1.42944945 2.35438733 2.08661261 3.48032433 1.625 6.25 C1.41875 6.8275 1.2125 7.405 1 8 C-2.76687864 8 -3.91190305 7.76462683 -7 6 C-4.84615385 0 -4.84615385 0 0 0 Z " fill="#23744E" transform="translate(74,30)"/>
<path d="M0 0 C1.98 0.99 1.98 0.99 4 2 C4.75 5.625 4.75 5.625 5 9 C4.34 9 3.68 9 3 9 C3 9.66 3 10.32 3 11 C5.51083114 9.74458443 5.87125446 8.49936512 7 6 C7 8.64 7 11.28 7 14 C5.02 13.34 3.04 12.68 1 12 C0.67 8.04 0.34 4.08 0 0 Z " fill="#226A4B" transform="translate(81,23)"/>
<path d="M0 0 C2.64 0 5.28 0 8 0 C8.33 0.99 8.66 1.98 9 3 C8 4.5625 8 4.5625 6 6 C3.23385218 5.96726452 0.73969453 5.49404328 -2 5 C-1.34 3.35 -0.68 1.7 0 0 Z " fill="#22694B" transform="translate(41,32)"/>
<path d="M0 0 C1.32 0 2.64 0 4 0 C3.67 1.32 3.34 2.64 3 4 C1.68 4 0.36 4 -1 4 C-0.91277063 6.41835897 -0.80588627 8.83313316 -0.6875 11.25 C-0.65366211 12.27287109 -0.65366211 12.27287109 -0.61914062 13.31640625 C-0.39833396 17.45151296 0.09593 19.97914434 3 23 C1.0625 22.625 1.0625 22.625 -1 22 C-2.70913373 18.58173253 -2.18458479 14.76645237 -2.1875 11 C-2.19974609 10.16726562 -2.21199219 9.33453125 -2.22460938 8.4765625 C-2.22654297 7.67992187 -2.22847656 6.88328125 -2.23046875 6.0625 C-2.23457764 5.33160156 -2.23868652 4.60070312 -2.24291992 3.84765625 C-2 2 -2 2 0 0 Z " fill="#286E5A" transform="translate(98,16)"/>
<path d="M0 0 C0 0.33 0 0.66 0 1 C-2.97 1.66 -5.94 2.32 -9 3 C-8.34 4.32 -7.68 5.64 -7 7 C-7.375 9.75 -7.375 9.75 -8 12 C-8.66 11.67 -9.32 11.34 -10 11 C-10 9.68 -10 8.36 -10 7 C-11.4166747 5.2488427 -11.4166747 5.2488427 -13 4 C-8.70699742 -0.75296714 -6.19220493 -1.54805123 0 0 Z " fill="#1B5B3F" transform="translate(67,19)"/>
<path d="M0 0 C1.32 0.66 2.64 1.32 4 2 C3.01 2.495 3.01 2.495 2 3 C2 3.66 2 4.32 2 5 C1.34 5 0.68 5 0 5 C-0.33 5.66 -0.66 6.32 -1 7 C-1.66 6.67 -2.32 6.34 -3 6 C-3 7.65 -3 9.3 -3 11 C-3.99 11 -4.98 11 -6 11 C-6.36625971 6.48279689 -6.36625971 6.48279689 -4.625 4.1875 C-3 3 -3 3 -1 3 C-0.67 2.01 -0.34 1.02 0 0 Z " fill="#A9AA99" transform="translate(81,35)"/>
<path d="M0 0 C0.042721 1.66611905 0.04063832 3.33382885 0 5 C-1 6 -1 6 -3.50390625 6.09765625 C-5.01791016 6.08025391 -5.01791016 6.08025391 -6.5625 6.0625 C-7.57441406 6.05347656 -8.58632813 6.04445313 -9.62890625 6.03515625 C-10.41136719 6.02355469 -11.19382813 6.01195312 -12 6 C-12 5.34 -12 4.68 -12 4 C-9.04335481 2.5216774 -6.25770263 2.93967217 -3 3 C-3 2.34 -3 1.68 -3 1 C-1 0 -1 0 0 0 Z " fill="#1A7346" transform="translate(48,23)"/>
<path d="M0 0 C0 0.33 0 0.66 0 1 C-1.32 1.33 -2.64 1.66 -4 2 C-4 2.66 -4 3.32 -4 4 C-10.625 3.25 -10.625 3.25 -14 1 C-8.38372217 -1.98006579 -5.93642189 -2.30187787 0 0 Z " fill="#125738" transform="translate(47,19)"/>
<path d="M0 0 C0.66 1.32 1.32 2.64 2 4 C1.01 4.99 0.02 5.98 -1 7 C-1.66 6.67 -2.32 6.34 -3 6 C-2.34 4.68 -1.68 3.36 -1 2 C-3.92879371 2.62759865 -6.36095629 3.58622659 -9 5 C-8.625 3.0625 -8.625 3.0625 -8 1 C-5.29120665 -0.35439668 -2.99066732 -0.06501451 0 0 Z " fill="#19614D" transform="translate(92,9)"/>
<path d="M0 0 C0.33 0 0.66 0 1 0 C1 3.96 1 7.92 1 12 C0.67 11.34 0.34 10.68 0 10 C-0.99 10 -1.98 10 -3 10 C-3 7.69 -3 5.38 -3 3 C-2.01 3 -1.02 3 0 3 C0 2.01 0 1.02 0 0 Z " fill="#1B6647" transform="translate(124,25)"/>
<path d="M0 0 C0.66 0.66 1.32 1.32 2 2 C4.72469786 2.46659731 7.38179802 2.83599254 10.125 3.125 C11.25615234 3.25455078 11.25615234 3.25455078 12.41015625 3.38671875 C14.27257127 3.59889261 16.13618931 3.80045763 18 4 C17.34 4.66 16.68 5.32 16 6 C13.40730017 5.98252112 10.9474846 5.86231408 8.375 5.625 C7.66859375 5.56828125 6.9621875 5.5115625 6.234375 5.453125 C4.48878639 5.31159079 2.74426327 5.15702613 1 5 C0.67 3.35 0.34 1.7 0 0 Z " fill="#2D6D50" transform="translate(7,34)"/>
<path d="M0 0 C2.97 0 5.94 0 9 0 C8 4 8 4 5 6 C4.71125 5.360625 4.4225 4.72125 4.125 4.0625 C3.17176549 1.84793921 3.17176549 1.84793921 1 1 C0.67 1.66 0.34 2.32 0 3 C0 2.01 0 1.02 0 0 Z " fill="#185B56" transform="translate(98,2)"/>
<path d="M0 0 C1.98 0 3.96 0 6 0 C6 0.66 6 1.32 6 2 C6.99 2.33 7.98 2.66 9 3 C8.67 3.33 8.34 3.66 8 4 C5.30917128 3.82364548 2.67148554 3.38164079 0 3 C0 2.01 0 1.02 0 0 Z " fill="#21664B" transform="translate(57,35)"/>
<path d="M0 0 C3.63 0.33 7.26 0.66 11 1 C10.67 1.66 10.34 2.32 10 3 C7.03 3 4.06 3 1 3 C0.67 2.01 0.34 1.02 0 0 Z " fill="#177547" transform="translate(8,34)"/>
<path d="M0 0 C0.66 0 1.32 0 2 0 C2.66 1.65 3.32 3.3 4 5 C3.34 5.66 2.68 6.32 2 7 C1.59952556 9.32275177 1.2602896 11.65739357 1 14 C0.67 14 0.34 14 0 14 C0 9.38 0 4.76 0 0 Z " fill="#307E63" transform="translate(111,19)"/>
<path d="M0 0 C1.98 0.99 1.98 0.99 4 2 C3.33333333 5.33333333 2.66666667 8.66666667 2 12 C1.67 12 1.34 12 1 12 C0.67 8.04 0.34 4.08 0 0 Z " fill="#2F735B" transform="translate(81,23)"/>
<path d="M0 0 C0.66 0.33 1.32 0.66 2 1 C1.67 2.32 1.34 3.64 1 5 C-0.32 5 -1.64 5 -3 5 C-2.625 3.0625 -2.625 3.0625 -2 1 C-1.34 0.67 -0.68 0.34 0 0 Z " fill="#336852" transform="translate(74,33)"/>
<path d="M0 0 C2.97 0 5.94 0 9 0 C8.34 1.32 7.68 2.64 7 4 C6.34 4 5.68 4 5 4 C4.67 3.34 4.34 2.68 4 2 C2.68 1.34 1.36 0.68 0 0 Z " fill="#1E6F4A" transform="translate(38,20)"/>
<path d="M0 0 C1.32 0 2.64 0 4 0 C2.52307692 6.64615385 2.52307692 6.64615385 -0.125 8.4375 C-0.74375 8.623125 -1.3625 8.80875 -2 9 C-0.79618552 6.50638429 0.45428722 4.31856917 2 2 C1.34 2 0.68 2 0 2 C0 1.34 0 0.68 0 0 Z " fill="#9A9082" transform="translate(83,38)"/>
<path d="M0 0 C0.99 0.33 1.98 0.66 3 1 C3 2.65 3 4.3 3 6 C2.01 6.495 2.01 6.495 1 7 C1 6.34 1 5.68 1 5 C0.34 5 -0.32 5 -1 5 C-0.67 3.35 -0.34 1.7 0 0 Z " fill="#1D7349" transform="translate(32,27)"/>
<path d="M0 0 C0.99 0 1.98 0 3 0 C3 1.65 3 3.3 3 5 C1.68 4.67 0.36 4.34 -1 4 C-0.67 2.68 -0.34 1.36 0 0 Z " fill="#157149" transform="translate(99,8)"/>
<path d="M0 0 C0.99 0.33 1.98 0.66 3 1 C4.1875 3.5625 4.1875 3.5625 5 6 C4.01 6.495 4.01 6.495 3 7 C3 6.34 3 5.68 3 5 C2.01 4.67 1.02 4.34 0 4 C0 2.68 0 1.36 0 0 Z " fill="#2B726A" transform="translate(99,3)"/>
<path d="M0 0 C1.32 0.66 2.64 1.32 4 2 C4 2.99 4 3.98 4 5 C2.35 4.67 0.7 4.34 -1 4 C-0.67 2.68 -0.34 1.36 0 0 Z " fill="#23674B" transform="translate(24,33)"/>
<path d="M0 0 C2.125 0.9375 2.125 0.9375 4 2 C-0.875 6 -0.875 6 -2 6 C-2 4.35 -2 2.7 -2 1 C-1.34 0.67 -0.68 0.34 0 0 Z " fill="#1C724B" transform="translate(35,20)"/>
<path d="M0 0 C-0.556875 0.268125 -1.11375 0.53625 -1.6875 0.8125 C-4.19712523 2.10122647 -6.59334236 3.52926478 -9 5 C-8.625 3.0625 -8.625 3.0625 -8 1 C-5.29120665 -0.35439668 -2.99066732 -0.06501451 0 0 Z " fill="#1D5537" transform="translate(92,9)"/>
<path d="M0 0 C2 1 2 1 2 1 Z " fill="#FFFFFF" transform="translate(91,29)"/>
<path d="" fill="#FFFFFF" transform="translate(0,0)"/>
<path d="" fill="#FFFFFF" transform="translate(0,0)"/>
<path d="" fill="#FFFFFF" transform="translate(0,0)"/>
<path d="" fill="#FFFFFF" transform="translate(0,0)"/>
<path d="" fill="#FFFFFF" transform="translate(0,0)"/>
<path d="" fill="#FFFFFF" transform="translate(0,0)"/>
<path d="" fill="#FFFFFF" transform="translate(0,0)"/>
<path d="" fill="#FFFFFF" transform="translate(0,0)"/>
<path d="" fill="#FFFFFF" transform="translate(0,0)"/>
<path d="" fill="#FFFFFF" transform="translate(0,0)"/>
<path d="" fill="#FFFFFF" transform="translate(0,0)"/>
<path d="" fill="#FFFFFF" transform="translate(0,0)"/>
<path d="" fill="#FFFFFF" transform="translate(0,0)"/>
<path d="" fill="#FFFFFF" transform="translate(0,0)"/>
<path d="" fill="#FFFFFF" transform="translate(0,0)"/>
<path d="" fill="#FFFFFF" transform="translate(0,0)"/>
<path d="" fill="#FFFEFF" transform="translate(0,0)"/>
<path d="" fill="#FFFFFF" transform="translate(0,0)"/>
<path d="" fill="#FFFFFF" transform="translate(0,0)"/>
<path d="" fill="#FFFFFF" transform="translate(0,0)"/>
<path d="" fill="#FFFFFF" transform="translate(0,0)"/>
<path d="" fill="#FFFFFF" transform="translate(0,0)"/>
<path d="" fill="#FFFFFF" transform="translate(0,0)"/>
<path d="" fill="#FFFFFF" transform="translate(0,0)"/>
<path d="" fill="#FFFFFF" transform="translate(0,0)"/>
<path d="" fill="#FFFFFF" transform="translate(0,0)"/>
<path d="" fill="#FFFFFF" transform="translate(0,0)"/>
<path d="" fill="#FFFFFF" transform="translate(0,0)"/>
<path d="" fill="#FFFFFF" transform="translate(0,0)"/>
<path d="" fill="#FFFFFF" transform="translate(0,0)"/>
<path d="" fill="#FFFFFF" transform="translate(0,0)"/>
<path d="" fill="#FFFFFF" transform="translate(0,0)"/>
<path d="" fill="#FFFFFF" transform="translate(0,0)"/>
<path d="" fill="#FFFFFF" transform="translate(0,0)"/>
<path d="" fill="#FFFFFF" transform="translate(0,0)"/>
<path d="" fill="#FFFFFE" transform="translate(0,0)"/>
<path d="" fill="#FFFFFF" transform="translate(0,0)"/>
<path d="" fill="#FFFFFF" transform="translate(0,0)"/>
<path d="" fill="#FFFFFF" transform="translate(0,0)"/>
<path d="" fill="#FFFFFF" transform="translate(0,0)"/>
<path d="" fill="#FFFFFF" transform="translate(0,0)"/>
<path d="" fill="#FFFFFF" transform="translate(0,0)"/>
<path d="" fill="#FFFFFF" transform="translate(0,0)"/>
<path d="" fill="#FFFFFF" transform="translate(0,0)"/>
<path d="" fill="#FFFFFF" transform="translate(0,0)"/>
<path d="" fill="#FFFEFF" transform="translate(0,0)"/>
<path d="" fill="#FFFFFF" transform="translate(0,0)"/>
<path d="" fill="#FFFFFF" transform="translate(0,0)"/>
<path d="" fill="#FFFFFF" transform="translate(0,0)"/>
<path d="" fill="#FFFFFF" transform="translate(0,0)"/>
<path d="" fill="#FFFFFF" transform="translate(0,0)"/>
<path d="" fill="#FFFFFF" transform="translate(0,0)"/>
<path d="" fill="#FFFFFF" transform="translate(0,0)"/>
<path d="" fill="#FFFFFF" transform="translate(0,0)"/>
<path d="" fill="#FFFFFF" transform="translate(0,0)"/>
<path d="" fill="#FFFFFF" transform="translate(0,0)"/>
</svg>
