<?xml version="1.0" encoding="UTF-8"?>
<svg version="1.1" xmlns="http://www.w3.org/2000/svg" width="200" height="50">
<path d="M0 0 C1.58873246 3.17746491 1.41026221 6.54012202 1 10 C-0.5 12.5 -0.5 12.5 -2 14 C-1.01 14.33 -0.02 14.66 1 15 C2.60964787 18.21929573 2.60686242 21.51887712 2 25 C-0.53453657 28.21954645 -2.11297305 29.70432435 -6 31 C-7.33525717 31.07973476 -8.67412083 31.10771338 -10.01171875 31.09765625 C-11.14770508 31.09282227 -11.14770508 31.09282227 -12.30664062 31.08789062 C-13.48516602 31.07532227 -13.48516602 31.07532227 -14.6875 31.0625 C-15.48478516 31.05798828 -16.28207031 31.05347656 -17.10351562 31.04882812 C-19.06904257 31.0370585 -21.03453085 31.01912348 -23 31 C-23.05802751 26.41671978 -23.09360593 21.83353396 -23.125 17.25 C-23.14175781 15.94804687 -23.15851562 14.64609375 -23.17578125 13.3046875 C-23.18222656 12.05429687 -23.18867188 10.80390625 -23.1953125 9.515625 C-23.20578613 8.36352539 -23.21625977 7.21142578 -23.22705078 6.02441406 C-23.0043098 3.05740833 -22.7126342 1.41079154 -21 -1 C-13.32245038 -4.01080377 -7.1752993 -3.73115564 0 0 Z M-15 4 C-15 5.98 -15 7.96 -15 10 C-12.69 10 -10.38 10 -8 10 C-7.61781233 8.34385343 -7.28604898 6.67542976 -7 5 C-8.18424326 3.58422523 -8.18424326 3.58422523 -11.5625 3.9375 C-13.2640625 3.9684375 -13.2640625 3.9684375 -15 4 Z M-15 17 C-15 19.31 -15 21.62 -15 24 C-10.99745544 24.09181134 -10.99745544 24.09181134 -7 24 C-5.71677453 22.9404123 -5.71677453 22.9404123 -5.875 20.5 C-5.71677453 18.0595877 -5.71677453 18.0595877 -7 17 C-9.67058851 16.85884839 -12.32432238 16.95752893 -15 17 Z " fill="#010102" transform="translate(32,14)"/>
<path d="M0 0 C4.07520975 4.45429903 5.77827559 8.90957391 6.0625 14.9375 C5.80157319 20.70057914 4.27907844 25.38474055 0.125 29.4375 C-2.3125 30.9375 -2.3125 30.9375 -4.3125 30.9375 C-4.6425 31.5975 -4.9725 32.2575 -5.3125 32.9375 C-12.31764989 32.68414919 -17.66296222 32.29235204 -23.3125 27.9375 C-26.0406102 23.49951792 -26.72157194 20.11643544 -26.6875 14.9375 C-26.69523437 13.761875 -26.70296875 12.58625 -26.7109375 11.375 C-26.10637627 6.15917764 -24.55341186 2.95780531 -20.5 -0.375 C-13.64866717 -4.0021762 -6.5732575 -4.09278297 0 0 Z M-16.125 5.6875 C-19.4231091 10.5875478 -19.28529744 15.20353134 -18.3125 20.9375 C-16.51549181 24.40534527 -16.51549181 24.40534527 -13.3125 25.9375 C-9.8271803 25.9375 -7.47808309 25.8206006 -4.65234375 23.6796875 C-2.06966219 20.3214485 -2.3125 16.04235238 -2.3125 11.9375 C-3.06584243 8.71867326 -3.81076249 7.43923751 -6.125 5.125 C-10.15660782 2.9364129 -12.25591994 3.28007241 -16.125 5.6875 Z " fill="#6F6F6F" transform="translate(91.3125,13.0625)"/>
<path d="M0 0 C1.796875 1.55078125 1.796875 1.55078125 3 3 C2.34 4.65 1.68 6.3 1 8 C0.25234375 7.90460937 -0.4953125 7.80921875 -1.265625 7.7109375 C-2.74289063 7.54464844 -2.74289063 7.54464844 -4.25 7.375 C-5.22453125 7.25898438 -6.1990625 7.14296875 -7.203125 7.0234375 C-10.16542047 6.99861379 -11.54870932 7.39551883 -14 9 C-16.70294903 12.51383374 -16.52134675 16.76195544 -16 21 C-15.13353917 24.00155751 -15.13353917 24.00155751 -13 26 C-9.40080577 26.89592083 -9.40080577 26.89592083 -6 27 C-5.67 25.02 -5.34 23.04 -5 21 C-6.98 21 -8.96 21 -11 21 C-11 19.02 -11 17.04 -11 15 C-6.38 15 -1.76 15 3 15 C3 20.61 3 26.22 3 32 C-2.66355973 34.83177986 -8.30936393 35.78845407 -14.578125 34.44921875 C-18.63463407 32.92466981 -21.34143188 31.21176261 -23.5625 27.4375 C-25.87506242 21.71470728 -26.12931672 15.50318656 -24.234375 9.625 C-21.78734964 4.34253255 -19.30959568 1.92383827 -13.875 -0.25 C-9.13411376 -1.16759088 -4.69813668 -1.22381532 0 0 Z " fill="#FA9350" transform="translate(160,11)"/>
<path d="M0 0 C1.09248047 0.0009668 1.09248047 0.0009668 2.20703125 0.00195312 C7.59351504 0.04675752 7.59351504 0.04675752 9.875 1.1875 C9.125 5.9375 9.125 5.9375 6.875 8.1875 C5.885 7.8575 4.895 7.5275 3.875 7.1875 C-0.08991774 6.82037799 -2.44239987 6.8313608 -6 8.6875 C-8.80446592 11.98687167 -9.41529063 14.96651734 -9.125 19.1875 C-8.40851684 21.84001212 -7.4715856 23.74369651 -6.125 26.1875 C-3.41620665 27.54189668 -1.11566732 27.25251451 1.875 27.1875 C2.205 25.2075 2.535 23.2275 2.875 21.1875 C0.895 21.1875 -1.085 21.1875 -3.125 21.1875 C-4.125 18.1875 -4.125 18.1875 -3.125 15.1875 C1.165 15.1875 5.455 15.1875 9.875 15.1875 C9.875 21.1275 9.875 27.0675 9.875 33.1875 C6.31059582 34.37563473 3.32025218 34.42937953 -0.4375 34.5 C-1.73300781 34.53738281 -3.02851562 34.57476562 -4.36328125 34.61328125 C-8.78971841 34.11226188 -10.77847828 33.09940851 -14.125 30.1875 C-18.3921035 23.74164238 -18.00206802 16.64257817 -17.125 9.1875 C-15.67995815 5.57489537 -13.69847111 3.28080387 -10.4609375 1.03125 C-7.01261253 -0.21429882 -3.61571975 -0.06144783 0 0 Z " fill="#A3A3A3" transform="translate(119.125,10.8125)"/>
<path d="M0 0 C2.64 0 5.28 0 8 0 C9.98 3.63 11.96 7.26 14 11 C15.97204625 8.370605 17.61539808 6.06894138 19.1875 3.25 C19.785625 2.1775 20.38375 1.105 21 0 C23.64 0 26.28 0 29 0 C27.80412964 4.11631167 26.16835859 7.573607 23.97900391 11.25317383 C20.05225661 17.91092959 18.12207376 22.77644129 18.9140625 30.70703125 C18.94242188 31.46371094 18.97078125 32.22039063 19 33 C17 35 17 35 14.4375 35.1875 C12 35 12 35 11 34 C11.01160156 33.24976563 11.02320313 32.49953125 11.03515625 31.7265625 C11.13139928 20.8098536 6.30688954 12.97129418 0.90209961 3.76489258 C0 2 0 2 0 0 Z " fill="#F8BE68" transform="translate(166,11)"/>
<path d="M0 0 C2.64 0 5.28 0 8 0 C8 8.91 8 17.82 8 27 C12.29 27 16.58 27 21 27 C21 29.31 21 31.62 21 34 C16 35 16 35 0 34 C0 22.78 0 11.56 0 0 Z " fill="#4F5051" transform="translate(40,11)"/>
<path d="M0 0 C1.09248047 0.0009668 1.09248047 0.0009668 2.20703125 0.00195312 C7.59351504 0.04675752 7.59351504 0.04675752 9.875 1.1875 C9.125 5.9375 9.125 5.9375 6.875 8.1875 C5.885 7.8575 4.895 7.5275 3.875 7.1875 C-0.08991774 6.82037799 -2.44239987 6.8313608 -6 8.6875 C-9.67084691 13.00614342 -9.125 17.7219303 -9.125 23.1875 C-10.445 23.5175 -11.765 23.8475 -13.125 24.1875 C-13.125 24.8475 -13.125 25.5075 -13.125 26.1875 C-13.785 26.1875 -14.445 26.1875 -15.125 26.1875 C-15.125 25.5275 -15.125 24.8675 -15.125 24.1875 C-15.785 24.1875 -16.445 24.1875 -17.125 24.1875 C-17.98565021 9.32693975 -17.98565021 9.32693975 -14.875 4.875 C-10.09830854 0.20686971 -6.55451639 -0.1113916 0 0 Z " fill="#A6A6A6" transform="translate(119.125,10.8125)"/>
<path d="M0 0 C1.09248047 0.0009668 1.09248047 0.0009668 2.20703125 0.00195312 C7.59351504 0.04675752 7.59351504 0.04675752 9.875 1.1875 C9.125 5.9375 9.125 5.9375 6.875 8.1875 C5.885 7.8575 4.895 7.5275 3.875 7.1875 C2.35478483 7.1441427 0.83280527 7.14742606 -0.6875 7.1875 C-4.90347114 7.29826443 -4.90347114 7.29826443 -7.125 6.1875 C-9.4579866 6.14727609 -11.79206666 6.14429753 -14.125 6.1875 C-13.22677514 3.94193786 -12.54578352 2.48791013 -10.5546875 1.06640625 C-7.0638111 -0.19637058 -3.66056153 -0.0622099 0 0 Z " fill="#A8A8A8" transform="translate(119.125,10.8125)"/>
<path d="M0 0 C0.33 0 0.66 0 1 0 C1.01417969 1.12019531 1.02835938 2.24039062 1.04296875 3.39453125 C1.08986994 4.86722869 1.13811734 6.33988368 1.1875 7.8125 C1.19330078 8.55048828 1.19910156 9.28847656 1.20507812 10.04882812 C1.25316515 12.49564662 1.25316515 12.49564662 2 16 C4.46605935 17.78854169 4.46605935 17.78854169 7 19 C7 20.32 7 21.64 7 23 C12.94 22.67 18.88 22.34 25 22 C25 17.38 25 12.76 25 8 C21.7 7.67 18.4 7.34 15 7 C15 8.32 15 9.64 15 11 C16.32 11.33 17.64 11.66 19 12 C17.02 12 15.04 12 13 12 C13 10.02 13 8.04 13 6 C17.62 6 22.24 6 27 6 C27 11.61 27 17.22 27 23 C21.33644027 25.83177986 15.69063607 26.78845407 9.421875 25.44921875 C5.36536593 23.92466981 2.65856812 22.21176261 0.4375 18.4375 C-1.95630824 12.64883643 -1.96687186 5.90061558 0 0 Z " fill="#E69C70" transform="translate(136,20)"/>
<path d="M0 0 C2.64 0 5.28 0 8 0 C8 8.91 8 17.82 8 27 C12.29 27 16.58 27 21 27 C21 27.66 21 28.32 21 29 C18.68756208 29.02685412 16.3750373 29.04632841 14.0625 29.0625 C12.77472656 29.07410156 11.48695312 29.08570312 10.16015625 29.09765625 C7 29 7 29 6 28 C5.84213692 26.14825294 5.74892644 24.2909089 5.68359375 22.43359375 C5.62075195 20.7465332 5.62075195 20.7465332 5.55664062 19.02539062 C5.51732422 17.84138672 5.47800781 16.65738281 5.4375 15.4375 C5.39431641 14.24962891 5.35113281 13.06175781 5.30664062 11.83789062 C5.20016454 8.89205216 5.09815159 5.9461257 5 3 C3.68 2.67 2.36 2.34 1 2 C1 3.65 1 5.3 1 7 C0.67 7 0.34 7 0 7 C0 4.69 0 2.38 0 0 Z " fill="#2F3236" transform="translate(40,11)"/>
<path d="M0 0 C1.796875 1.55078125 1.796875 1.55078125 3 3 C2.34 4.65 1.68 6.3 1 8 C0.25234375 7.91621094 -0.4953125 7.83242188 -1.265625 7.74609375 C-2.25046875 7.64425781 -3.2353125 7.54242188 -4.25 7.4375 C-5.22453125 7.33308594 -6.1990625 7.22867187 -7.203125 7.12109375 C-9.7631352 7.01025532 -11.58148159 7.22261908 -14 8 C-10.70080863 4.08984726 -10.70080863 4.08984726 -7.5625 3.6875 C-5.00192761 3.99976493 -2.51452944 4.42525041 0 5 C0 4.34 0 3.68 0 3 C-6.93 2.505 -6.93 2.505 -14 2 C-14.33 2.99 -14.66 3.98 -15 5 C-16.98 5.33 -18.96 5.66 -21 6 C-21 6.99 -21 7.98 -21 9 C-21.66 9 -22.32 9 -23 9 C-21.7259103 5.07155677 -20.62144181 3.05541292 -17 1 C-11.35915707 -1.25633717 -5.87144655 -1.52945024 0 0 Z " fill="#EC9E6E" transform="translate(160,11)"/>
<path d="M0 0 C4.29 0 8.58 0 13 0 C13 1.65 13 3.3 13 5 C9.20732808 5.9360342 6.06325435 5.98276252 2.1875 5.5625 C1.21167969 5.46066406 0.23585937 5.35882813 -0.76953125 5.25390625 C-1.50558594 5.17011719 -2.24164063 5.08632813 -3 5 C-2.67 4.01 -2.34 3.02 -2 2 C-1.34 2 -0.68 2 0 2 C0 1.34 0 0.68 0 0 Z " fill="#545657" transform="translate(48,40)"/>
<path d="M0 0 C4.62 0 9.24 0 14 0 C14 1.32 14 2.64 14 4 C12.98679688 3.82210938 12.98679688 3.82210938 11.953125 3.640625 C9.26386891 3.25200418 6.71838006 2.96128889 4 3 C1.68721883 4.72937829 1.68721883 4.72937829 0 7 C-3.25 8.25 -3.25 8.25 -6 9 C-5.75 6.625 -5.75 6.625 -5 4 C-3 2.8125 -3 2.8125 -1 2 C-0.67 1.34 -0.34 0.68 0 0 Z " fill="#FC904C" transform="translate(146,13)"/>
<path d="M0 0 C2.64 0 5.28 0 8 0 C8 0.99 8 1.98 8 3 C6.68 3 5.36 3 4 3 C4.45375 4.03125 4.9075 5.0625 5.375 6.125 C6.76707361 9.36437508 7.93380878 12.63739693 9 16 C9.66 16 10.32 16 11 16 C11 17.65 11 19.3 11 21 C8.0718145 17.39750049 5.97587472 13.4592011 3.8125 9.375 C3.44447266 8.694375 3.07644531 8.01375 2.69726562 7.3125 C0 2.24824617 0 2.24824617 0 0 Z " fill="#F1C07C" transform="translate(166,11)"/>
<path d="M0 0 C-0.598125 0.268125 -1.19625 0.53625 -1.8125 0.8125 C-4.03394582 1.83517284 -4.03394582 1.83517284 -5.25 3.5625 C-8.13252959 5.93029216 -11.34155006 5.70012705 -15 6 C-14.67 4.68 -14.34 3.36 -14 2 C-14.66 1.67 -15.32 1.34 -16 1 C-10.10106757 -0.79074734 -6.06820868 -1.08360869 0 0 Z " fill="#7E7E7E" transform="translate(88,11)"/>
<path d="M0 0 C0.33 0 0.66 0 1 0 C1.01417969 1.12019531 1.02835938 2.24039062 1.04296875 3.39453125 C1.08986994 4.86722869 1.13811734 6.33988368 1.1875 7.8125 C1.19330078 8.55048828 1.19910156 9.28847656 1.20507812 10.04882812 C1.25316515 12.49564662 1.25316515 12.49564662 2 16 C4.44791191 17.86142332 4.44791191 17.86142332 7 19 C7 19.99 7 20.98 7 22 C5.68 22 4.36 22 3 22 C-0.89692467 15.54571852 -1.73970621 10.50619913 -1 3 C-0.67 2.01 -0.34 1.02 0 0 Z " fill="#ED9665" transform="translate(136,20)"/>
<path d="M0 0 C-0.33 1.65 -0.66 3.3 -1 5 C-7.75 3.125 -7.75 3.125 -10 2 C-9.67 1.01 -9.34 0.02 -9 -1 C-5.52718036 -2.61238055 -3.32673591 -1.57095862 0 0 Z " fill="#767676" transform="translate(88,41)"/>
<path d="M0 0 C1.32 0 2.64 0 4 0 C4 2.97 4 5.94 4 9 C2.68 9 1.36 9 0 9 C0 6.03 0 3.06 0 0 Z " fill="#FBBE55" transform="translate(179,34)"/>
<path d="M0 0 C0.33 0 0.66 0 1 0 C1.25 6.625 1.25 6.625 -1 10 C-2.32 9.67 -3.64 9.34 -5 9 C-5 8.34 -5 7.68 -5 7 C-3.68 6.67 -2.36 6.34 -1 6 C-0.67 4.02 -0.34 2.04 0 0 Z " fill="#EC9A64" transform="translate(155,32)"/>
<path d="M0 0 C2.64 0 5.28 0 8 0 C7.34 1.32 6.68 2.64 6 4 C4.02 3.34 2.04 2.68 0 2 C0 1.34 0 0.68 0 0 Z " fill="#E9C78B" transform="translate(187,11)"/>
<path d="M0 0 C1.98 0.99 1.98 0.99 4 2 C4 2.66 4 3.32 4 4 C4.66 4 5.32 4 6 4 C5.67 4.99 5.34 5.98 5 7 C3.68 6.67 2.36 6.34 1 6 C1.66 6 2.32 6 3 6 C3 5.01 3 4.02 3 3 C2.01 2.67 1.02 2.34 0 2 C0 1.34 0 0.68 0 0 Z " fill="#F39156" transform="translate(146,37)"/>
<path d="M0 0 C-0.33 1.65 -0.66 3.3 -1 5 C-2.65 5 -4.3 5 -6 5 C-3.74193548 0 -3.74193548 0 0 0 Z " fill="#C5C5C5" transform="translate(111,12)"/>
<path d="" fill="#FFFFFF" transform="translate(0,0)"/>
<path d="" fill="#FFFFFF" transform="translate(0,0)"/>
<path d="" fill="#FFFFFF" transform="translate(0,0)"/>
<path d="" fill="#FFFFFF" transform="translate(0,0)"/>
<path d="" fill="#FFFFFF" transform="translate(0,0)"/>
<path d="" fill="#FFFFFF" transform="translate(0,0)"/>
<path d="" fill="#FFFFFF" transform="translate(0,0)"/>
<path d="" fill="#FFFEFF" transform="translate(0,0)"/>
<path d="" fill="#FFFFFF" transform="translate(0,0)"/>
<path d="" fill="#FFFFFF" transform="translate(0,0)"/>
<path d="" fill="#FFFFFF" transform="translate(0,0)"/>
<path d="" fill="#FFFFFF" transform="translate(0,0)"/>
<path d="" fill="#FFFFFF" transform="translate(0,0)"/>
<path d="" fill="#FFFFFF" transform="translate(0,0)"/>
<path d="" fill="#FFFFFF" transform="translate(0,0)"/>
<path d="" fill="#FFFFFF" transform="translate(0,0)"/>
<path d="" fill="#FFFFFF" transform="translate(0,0)"/>
<path d="" fill="#FFFFFF" transform="translate(0,0)"/>
<path d="" fill="#FFFFFF" transform="translate(0,0)"/>
<path d="" fill="#FFFFFF" transform="translate(0,0)"/>
<path d="" fill="#FFFFFF" transform="translate(0,0)"/>
<path d="" fill="#FFFFFF" transform="translate(0,0)"/>
<path d="" fill="#FFFFFF" transform="translate(0,0)"/>
<path d="" fill="#FFFFFF" transform="translate(0,0)"/>
<path d="" fill="#FFFFFF" transform="translate(0,0)"/>
<path d="" fill="#FFFFFF" transform="translate(0,0)"/>
<path d="" fill="#FFFFFF" transform="translate(0,0)"/>
<path d="" fill="#FFFFFF" transform="translate(0,0)"/>
<path d="" fill="#FFFFFF" transform="translate(0,0)"/>
<path d="" fill="#FFFFFF" transform="translate(0,0)"/>
<path d="" fill="#FFFFFE" transform="translate(0,0)"/>
<path d="" fill="#FFFFFF" transform="translate(0,0)"/>
<path d="" fill="#FFFFFF" transform="translate(0,0)"/>
<path d="" fill="#FFFFFF" transform="translate(0,0)"/>
<path d="" fill="#FFFFFF" transform="translate(0,0)"/>
<path d="" fill="#FFFFFF" transform="translate(0,0)"/>
<path d="" fill="#FFFFFF" transform="translate(0,0)"/>
<path d="" fill="#FFFFFF" transform="translate(0,0)"/>
<path d="" fill="#FFFFFF" transform="translate(0,0)"/>
<path d="" fill="#FFFFFF" transform="translate(0,0)"/>
<path d="" fill="#FFFFFF" transform="translate(0,0)"/>
<path d="" fill="#FFFFFF" transform="translate(0,0)"/>
<path d="" fill="#FFFFFF" transform="translate(0,0)"/>
<path d="" fill="#FFFFFF" transform="translate(0,0)"/>
<path d="" fill="#FFFFFF" transform="translate(0,0)"/>
<path d="" fill="#FFFFFF" transform="translate(0,0)"/>
<path d="" fill="#FFFFFF" transform="translate(0,0)"/>
</svg>
